<?xml version="1.0" standalone="no"?>
<!DOCTYPE svg PUBLIC "-//W3C//DTD SVG 20010904//EN"
 "http://www.w3.org/TR/2001/REC-SVG-20010904/DTD/svg10.dtd">
<svg version="1.0" xmlns="http://www.w3.org/2000/svg"
 width="310.000000pt" height="310.000000pt" viewBox="0 0 310.000000 310.000000"
 preserveAspectRatio="xMidYMid meet">
<metadata>
Created by potrace 1.11, written by Peter Selinger 2001-2013
</metadata>
<g transform="translate(0.000000,310.000000) scale(0.100000,-0.100000)"
fill="#000000" stroke="none">
<path d="M499 3095 c-2 -2 -31 -6 -64 -9 -178 -17 -271 -68 -281 -153 -11
-104 114 -183 421 -266 92 -25 209 -53 258 -61 15 -3 53 -10 85 -16 31 -5 71
-13 87 -15 17 -3 53 -10 80 -15 28 -5 86 -14 130 -21 44 -6 89 -13 100 -15 11
-2 43 -6 70 -9 28 -3 84 -9 125 -14 293 -38 558 -55 850 -55 273 0 382 10 477
46 91 34 136 114 102 181 -20 39 -82 87 -154 116 -70 29 -283 95 -340 105 -48
9 -67 13 -110 24 -22 6 -57 13 -79 16 -21 4 -41 8 -45 10 -3 2 -31 7 -61 11
-30 4 -57 8 -60 10 -4 2 -48 10 -120 20 -8 1 -35 5 -60 9 -25 4 -56 9 -70 11
-14 2 -45 6 -70 10 -81 12 -94 14 -150 20 -30 3 -66 8 -80 10 -14 2 -61 7
-105 11 -44 3 -87 7 -95 9 -9 2 -61 6 -115 10 -55 4 -116 9 -135 11 -44 6
-587 14 -591 9z m736 -189 c124 -11 255 -25 290 -32 11 -2 40 -6 65 -9 25 -2
56 -7 70 -9 14 -3 45 -7 70 -10 25 -4 56 -8 70 -10 14 -3 59 -10 100 -16 41
-7 82 -14 90 -15 8 -1 35 -6 60 -10 25 -4 54 -9 65 -12 11 -2 31 -6 45 -9 96
-18 137 -27 269 -61 74 -18 142 -38 152 -43 10 -6 28 -10 41 -10 21 -1 21 -2
5 -11 -29 -17 -522 -13 -692 6 -16 1 -64 6 -105 9 -98 9 -188 18 -300 32 -14
1 -47 5 -75 8 -27 3 -66 8 -85 11 -19 3 -53 8 -75 10 -22 3 -51 7 -65 10 -14
3 -38 7 -55 9 -43 6 -191 33 -250 46 -27 6 -57 11 -65 11 -8 1 -33 6 -55 11
-22 6 -51 12 -65 14 -14 3 -32 7 -40 10 -8 3 -26 8 -40 10 -14 3 -36 9 -50 14
-14 4 -49 14 -78 21 -60 15 -57 26 8 32 50 4 631 -2 695 -7z"/>
<path d="M229 2230 c-2 -184 1 -433 5 -437 3 -3 231 -6 507 -7 l502 -1 0 -893
-1 -892 307 2 306 3 1 890 2 890 508 5 507 5 0 220 c-1 121 -2 231 -2 245 l-1
25 -1320 0 -1320 0 -1 -55z"/>
</g>
</svg>
