<svg fill="none" height="137" width="420" xmlns="http://www.w3.org/2000/svg"><path d="M26.965 136.535h-3.247c-2.26 0-4.518-.282-6.636-.564-2.117-.424-4.094-.989-5.93-1.977-1.834-.988-3.528-2.117-4.94-3.67a21.417 21.417 0 0 1-3.67-4.942c-.99-1.835-1.554-3.811-1.977-5.929C.14 117.194 0 115.077 0 112.818v-88.8c0-2.26.282-4.518.565-6.636.282-2.117.988-4.094 1.976-5.929s2.118-3.53 3.67-4.941a21.423 21.423 0 0 1 4.942-3.67c1.835-.989 3.812-1.554 5.93-1.977C19.34.44 21.458.3 23.717.3h372.564c2.259 0 4.377.282 6.636.565 2.117.282 4.094.988 5.929 1.976 3.671 1.836 6.635 4.941 8.612 8.612.988 1.835 1.553 3.812 1.976 5.93.424 2.258.565 4.517.565 6.776v88.659c0 2.259-.282 4.376-.565 6.635-.282 2.118-.988 4.094-1.976 5.929-.988 1.836-2.118 3.53-3.671 4.942a21.446 21.446 0 0 1-4.941 3.67c-1.835.988-3.812 1.553-5.929 1.977-2.259.423-4.377.564-6.636.564H26.964z" fill="#fff"/><path d="M85.835 67.924c.142-6.354 3.389-12.142 8.753-15.389-3.388-4.8-8.894-7.764-14.823-8.047-6.212-.706-12.283 3.67-15.388 3.67-3.247 0-8.047-3.67-13.412-3.529-6.918.283-13.27 4.095-16.518 10.165-7.2 12.424-1.835 30.635 5.082 40.659 3.389 4.941 7.483 10.447 12.706 10.165 5.083-.283 7.06-3.247 13.271-3.247 6.212 0 7.906 3.247 13.27 3.105 5.506-.141 9.036-4.941 12.283-9.882 2.4-3.53 4.376-7.341 5.647-11.435-6.494-2.683-10.87-9.035-10.87-16.236zm-10.023-29.93c2.965-3.67 4.518-8.188 4.094-12.988a17.551 17.551 0 0 0-11.859 6.212 17.35 17.35 0 0 0-4.235 12.423c4.659.141 9.035-1.976 12-5.647zM147.53 93.76h-16.8l-4.094 12h-7.2l15.952-44.188h7.483l15.953 44.188h-7.2zm-15.106-5.506h13.412L139.2 68.912h-.141l-6.635 19.34zm60.847 1.412c0 10.023-5.365 16.517-13.412 16.517-4.235.283-8.188-1.976-10.165-5.647h-.141v15.953h-6.635V73.57h6.353v5.365h.141c2.118-3.67 6.071-5.788 10.306-5.647 8.188-.141 13.553 6.353 13.553 16.377zm-6.777 0c0-6.495-3.388-10.871-8.47-10.871-5.083 0-8.471 4.377-8.471 10.87 0 6.495 3.388 10.871 8.471 10.871 5.082 0 8.47-4.235 8.47-10.87zm42.353 0c0 10.023-5.365 16.517-13.412 16.517-4.235.283-8.188-1.976-10.164-5.647h-.142v15.953h-6.635V73.57h6.353v5.365h.141c2.118-3.67 6.071-5.788 10.306-5.647 8.188-.141 13.553 6.353 13.553 16.377zm-6.776 0c0-6.495-3.389-10.871-8.471-10.871s-8.471 4.377-8.471 10.87c0 6.495 3.389 10.871 8.471 10.871s8.471-4.235 8.471-10.87zm30.211 3.811c.423 4.377 4.8 7.201 10.588 7.201 5.647 0 9.6-2.824 9.6-6.777 0-3.388-2.4-5.506-8.188-6.918l-5.788-1.411c-8.189-1.977-11.859-5.789-11.859-11.86 0-7.623 6.635-12.846 16.094-12.846 9.317 0 15.812 5.223 15.953 12.847h-6.636c-.423-4.377-4.094-7.059-9.317-7.059-5.224 0-9.035 2.682-9.035 6.635 0 3.106 2.4 4.942 8.047 6.353l4.941 1.13c9.035 2.117 12.847 5.788 12.847 12.282 0 8.329-6.635 13.412-17.083 13.412-9.741 0-16.376-5.083-16.8-13.13l6.636.142zm41.506-27.529v7.624h6.071v5.223h-6.071v17.788c0 2.824 1.271 4.094 3.953 4.094.706 0 1.412 0 2.118-.141v5.224c-1.271.282-2.4.282-3.671.282-6.494 0-9.035-2.4-9.035-8.753V78.794h-4.659v-5.223h4.659v-7.624h6.635zm9.601 23.718c0-10.165 5.929-16.518 15.247-16.518 9.317 0 15.247 6.353 15.247 16.518 0 10.164-5.93 16.517-15.247 16.517-9.318 0-15.247-6.353-15.247-16.517zm23.858 0c0-6.918-3.247-11.012-8.611-11.012-5.365 0-8.612 4.094-8.612 11.012 0 7.058 3.247 11.011 8.612 11.011 5.506 0 8.611-4.094 8.611-11.011zm12.282-16.094h6.353v5.506h.141c.847-3.53 4.095-5.93 7.765-5.789.706 0 1.553.142 2.259.283v6.212a10.747 10.747 0 0 0-2.965-.424c-3.67-.141-6.776 2.682-6.917 6.353v20.047h-6.636V73.571zM386.541 96.3c-.847 5.788-6.635 9.882-13.835 9.882-9.318 0-15.247-6.353-15.247-16.376 0-10.165 5.788-16.659 14.965-16.659 8.894 0 14.541 6.07 14.541 15.953v2.259h-22.871v.282c-.423 4.659 2.965 8.753 7.624 9.177h.988c3.247.282 6.212-1.553 7.482-4.518zm-22.447-9.6h16.094c.283-4.235-3.105-7.906-7.341-8.188h-.565c-4.376 0-8.188 3.53-8.188 8.188zM131.577 28.253a9.273 9.273 0 0 1 10.023 8.753v1.835c0 6.776-3.67 10.73-10.023 10.73h-7.624V28.252h7.624zM127.2 46.465h3.953c3.671.282 6.918-2.542 7.059-6.212V38.84c.565-3.67-2.118-7.059-5.788-7.482-.424 0-.847-.142-1.271 0H127.2v15.105zm18.071-4.942c-.423-4.235 2.682-7.906 6.777-8.329 4.235-.424 7.905 2.682 8.329 6.776v1.412c.424 4.236-2.682 7.906-6.776 8.33-4.236.423-7.906-2.683-8.33-6.777zm11.859 0c0-3.529-1.553-5.506-4.235-5.506-2.683 0-4.236 1.977-4.236 5.506 0 3.53 1.553 5.506 4.236 5.506 2.682 0 4.235-2.117 4.235-5.506zm23.435 7.906h-3.247l-3.247-11.858h-.282l-3.248 11.858h-3.247l-4.376-16.094h3.247l2.824 12.283h.282l3.247-12.283h3.106l3.247 12.283h.282l2.824-12.283h3.106zm8.189-15.953h3.106v2.542h.282c.847-1.836 2.682-2.965 4.8-2.824 2.824-.282 5.365 1.976 5.647 4.8v11.577h-3.106v-9.6c0-2.542-1.129-3.812-3.529-3.812-1.977-.141-3.812 1.412-3.812 3.53v9.882h-3.106zm18.635-6.352h3.106v22.305h-3.106V27.123zm7.482 14.4c-.424-4.236 2.682-7.907 6.776-8.33 4.235-.424 7.906 2.682 8.33 6.776v1.412c.423 4.236-2.683 7.906-6.777 8.33-4.094.423-7.906-2.683-8.329-6.777v-1.412zm11.859 0c0-3.53-1.553-5.507-4.236-5.507-2.682 0-4.235 1.977-4.235 5.506 0 3.53 1.553 5.506 4.235 5.506 2.683 0 4.236-2.117 4.236-5.506zm6.636 3.388c0-2.824 2.117-4.518 5.929-4.8l4.377-.283v-1.412c0-1.694-1.13-2.682-3.247-2.682-1.836 0-2.965.706-3.389 1.835h-3.106c.283-2.823 2.965-4.517 6.495-4.517 3.953 0 6.353 1.976 6.353 5.364V49.43h-3.106v-2.26h-.283c-.988 1.694-2.823 2.542-4.8 2.542-2.682.282-5.082-1.695-5.364-4.377.141 0 .141-.282.141-.423zm10.306-1.271v-1.412l-3.953.283c-2.259.14-3.247.847-3.247 2.258 0 1.412 1.27 2.26 2.964 2.26 2.259.282 4.094-1.271 4.236-3.389zm7.34-2.118c0-5.082 2.541-8.33 6.635-8.33 1.977-.14 3.953.99 4.941 2.824h.283v-8.753h3.105V49.57h-2.964v-2.54h-.283c-.988 1.834-2.964 2.823-5.082 2.823-4.094-.142-6.635-3.247-6.635-8.33zm3.247 0c0 3.388 1.553 5.506 4.235 5.506s4.377-2.118 4.377-5.506-1.695-5.506-4.377-5.506c-2.541 0-4.235 2.118-4.235 5.506zm24.848 0c-.423-4.235 2.682-7.906 6.777-8.329 4.235-.424 7.905 2.682 8.329 6.776v1.412c.423 4.236-2.682 7.906-6.777 8.33-4.235.423-7.905-2.683-8.329-6.777zm11.859 0c0-3.529-1.553-5.506-4.235-5.506-2.683 0-4.236 1.977-4.236 5.506 0 3.53 1.553 5.506 4.236 5.506 2.682 0 4.235-2.117 4.235-5.506zm7.481-8.047h3.106v2.542h.282c.848-1.836 2.683-2.965 4.801-2.824 2.823-.282 5.364 1.976 5.647 4.8v11.577h-3.106v-9.6c0-2.542-1.13-3.812-3.53-3.812-1.976-.141-3.812 1.412-3.812 3.53v9.882h-3.105V33.476zm31.483-3.953v4.095h3.53V36.3h-3.53v8.188c0 1.694.706 2.4 2.259 2.4.424 0 .847 0 1.271-.141v2.682c-.565.142-1.13.142-1.694.142-3.53 0-4.942-1.271-4.942-4.377v-9.035h-2.541v-2.683h2.541v-3.953zm7.906-2.4h3.106v8.895h.282c.847-1.836 2.824-3.106 4.941-2.824 2.965-.141 5.365 2.118 5.506 4.941V49.43h-3.106v-9.6c0-2.54-1.129-3.811-3.388-3.811-2.118-.142-3.812 1.411-4.094 3.388V49.43h-3.106l-.141-22.306zm32.187 18.071c-.847 2.965-3.812 4.941-6.918 4.659-3.953.141-7.341-3.106-7.482-7.059v-1.13c-.565-4.093 2.258-7.764 6.353-8.329h.988c4.517 0 7.2 3.106 7.2 8.047v1.13H358.87v.14c-.141 2.4 1.553 4.377 3.811 4.518h.424c1.553.142 3.106-.564 3.812-1.976zM358.87 39.97h8.047c.141-2.117-1.412-3.952-3.53-4.094h-.423c-2.118-.14-4.094 1.695-4.094 4.095z" fill="#000"/></svg>