<svg fill="none" height="110" width="420" xmlns="http://www.w3.org/2000/svg"><linearGradient id="b" gradientUnits="userSpaceOnUse" x1="75.719" x2="37.292" y1="27.026" y2="31.792"><stop offset="0" stop-color="#bb68fd"/><stop offset=".11" stop-color="#9b85ff"/><stop offset=".257" stop-color="#77cce6"/><stop offset=".397" stop-color="#8effa7"/><stop offset=".623" stop-color="#f1ff6b"/><stop offset=".812" stop-color="#f0af59"/><stop offset="1" stop-color="#ff6e97"/></linearGradient><clipPath id="a"><path d="M29 23h221v51.662H29z"/></clipPath><path d="M.75.75h418.5v108.5H.75z" stroke="#fff" stroke-width="1.5"/><path d="M305.39 71.634h-7.005V49.578h-.172l-8.767 22.056h-8.166l-8.724-22.056h-.172v22.056h-7.005v-32.68h9.842L285.32 64.13h.172l10.1-25.178h9.798v32.681zm29.482-6.848h-15.858l-2.88 6.798h-7.95l14.225-32.63h9.025l14.268 32.63h-7.907zm-2.75-6.345l-5.115-12.035h-.171l-5.115 12.035zm49.209-5.64v3.173c0 10.373-7.994 16.114-18.093 16.114-10.186 0-18.566-5.388-18.566-16.568 0-10.524 7.736-17.02 18.265-17.02 8.466 0 15.987 3.626 17.449 10.675h-7.994c-1.461-2.366-4.727-3.474-9.197-3.474-6.232 0-10.873 3.424-10.873 9.82 0 7.05 5.114 9.517 10.83 9.517 4.985 0 9.541-1.914 10.271-6.144h-10.787v-6.093z" stroke="#fff" stroke-width="1.5"/><g clip-path="url(#a)"><path d="M77.151 45.277h-15.44v27.227h-9.379V45.277h-15.44v-7.552h40.26v7.552zm41.358 26.33v.893h-9.383c-.696-1.142-1.142-2.83-1.142-4.918v-3.727c0-2.384-1.342-3.63-4.317-3.63H89.123v12.271h-9.035V37.725h25.367c9.58 0 12.907 4.82 12.907 10.185 0 4.821-2.93 7.352-6.454 8.2v.2c4.121.447 5.66 2.982 5.66 6.111v4.522c-.004 1.933.245 3.276.941 4.664zm-9.682-22.505c0-2.883-2.034-4.124-4.964-4.124H89.119v8.097h14.744c3.028 0 4.964-1.24 4.964-3.973zm45.446 16.145h-19.757l-3.577 7.257h-9.927l17.723-34.78h11.27l17.772 34.78h-9.879zm-3.43-6.807l-6.4-12.815h-.2l-6.355 12.82h12.955zm34.673-13.908c-5.062 0-8.834.946-8.834 3.178 0 2.138 2.087 3.03 10.872 3.575 13.402.893 18.419 4.522 18.419 11.23 0 8.646-10.226 10.485-19.659 10.485-10.373 0-19.658-3.428-20.55-12.32h9.579c.843 3.973 6.454 4.92 11.516 4.92 5.213 0 9.481-.746 9.481-3.179 0-2.236-1.637-3.129-10.373-3.727-11.864-.794-18.914-3.526-18.914-10.382 0-8.744 9.481-11.079 18.566-11.079 9.829 0 19.409 2.884 20.354 12.074h-9.432c-.995-3.633-5.512-4.775-11.025-4.775zm64.509-6.807v34.78h-9.285V58.591h-23.035v13.912h-9.334v-34.78h9.334v13.119h23.035V37.725z" fill="#fff"/><path d="M36.974 35.844L36 27.902 75.898 23l.974 7.941z" fill="url(#b)"/></g></svg>