<svg width="1282" height="116" fill="none" xmlns="http://www.w3.org/2000/svg"><path d="M27.84 18.2H4.928V63H27.84c16.64 0 23.232-9.088 23.232-22.336 0-14.016-7.616-22.464-23.232-22.464zm.768 36.672h-13.76V26.328h13.76c9.28 0 12.544 6.848 12.544 14.336 0 7.424-3.712 14.208-12.544 14.208zm45.997 8.768c11.456 0 19.648-6.08 19.648-16.64s-8.192-16.64-19.648-16.64c-11.584 0-19.648 6.08-19.648 16.64s8.064 16.64 19.648 16.64zm0-7.232c-6.144 0-9.984-3.84-9.984-9.408s3.84-9.408 9.984-9.408c6.08 0 9.984 3.84 9.984 9.408s-3.904 9.408-9.984 9.408zm45.643-26.048c-7.744 0-10.752 3.392-11.904 5.056h-.256l.32-3.712V31h-9.6v32h9.6V48.024c0-6.976 4.416-10.688 9.984-10.688 5.632 0 8.064 3.136 8.064 9.728V63h9.536V44.632c0-10.624-6.784-14.272-15.744-14.272zM140.69 18.2v10.432h5.44c0 3.264-.832 4.672-5.12 4.672h-1.472v6.784h2.176c6.976 0 9.856-2.752 9.856-10.176V18.2h-10.88zm30.736 34.176v-14.4h10.048V31h-10.048V19.48l-9.6 1.28V31h-7.104v6.976h7.104v14.976c0 6.592 4.16 10.496 11.008 10.368.384 0 .896 0 1.728-.064l6.336-.512v-7.168l-4.224.256c-.64.064-1.216.064-1.408.064-2.752.064-3.84-1.408-3.84-3.52zm47.531 3.904c-5.056 0-9.728-1.984-10.944-6.656h29.12c.32-.832.512-2.112.512-3.392 0-9.984-8.512-15.872-19.328-15.872-11.456 0-19.648 6.592-19.648 16.832 0 10.112 8.448 16.384 20.352 16.384 8.64 0 17.6-3.2 18.624-11.136h-9.536c-1.152 3.008-5.312 3.84-9.152 3.84zm-.64-18.944c5.056 0 8.576 2.176 9.6 6.016h-19.648c1.344-3.776 4.864-6.016 10.048-6.016zm61.711 15.552V16.92h-9.473v17.6h-.256c-2.048-2.56-6.016-4.16-11.2-4.16-10.816 0-17.6 6.144-17.6 16.64 0 10.432 6.784 16.576 17.472 16.576 5.44 0 9.472-1.92 11.712-5.056h.256c.256 1.856.576 3.328.896 4.48h9.216v-.704c-.704-1.408-1.023-5.184-1.023-9.408zm-19.137 3.264c-5.952 0-9.728-3.392-9.728-9.152 0-5.824 3.776-9.216 9.728-9.216 5.824 0 9.664 3.392 9.664 9.216 0 5.76-3.84 9.152-9.664 9.152zM285.15 25.88h10.816v-8.96H285.15v8.96zM295.262 63V31h-9.536v32h9.536zm19.689-10.624v-14.4h10.048V31h-10.048V19.48l-9.6 1.28V31h-7.104v6.976h7.104v14.976c0 6.592 4.16 10.496 11.008 10.368.384 0 .896 0 1.728-.064l6.336-.512v-7.168l-4.224.256c-.64.064-1.216.064-1.408.064-2.752.064-3.84-1.408-3.84-3.52zM380.851 31h-10.112l-9.856 21.568h-.256L350.771 31h-10.176l15.488 32.064V77.08h9.28V62.936L380.851 31zm19.946 32.64c11.456 0 19.648-6.08 19.648-16.64s-8.192-16.64-19.648-16.64c-11.584 0-19.648 6.08-19.648 16.64s8.064 16.64 19.648 16.64zm0-7.232c-6.144 0-9.984-3.84-9.984-9.408s3.84-9.408 9.984-9.408c6.08 0 9.984 3.84 9.984 9.408s-3.904 9.408-9.984 9.408zm60.181-3.52V31h-9.472v14.976c0 6.976-3.84 10.688-9.216 10.688-5.312 0-8.128-3.136-8.128-9.728V31h-9.536v18.368c0 10.624 7.168 14.272 15.36 14.272 7.552 0 10.496-3.392 11.584-5.056h.32c.256 1.792.576 3.264.832 4.416h9.28v-.704c-.704-1.408-1.024-5.184-1.024-9.408zm24.991-22.016c-1.088-.128-2.112-.192-2.688-.192-3.84 0-5.248 1.664-7.296 5.632h-.256l.448-4.608V31h-9.472v32h9.472V49.176c0-5.632 1.856-10.048 7.616-10.048.192 0 .576 0 1.472.064l3.456.32v-8.256l-2.752-.384zm28.564 10.368h9.216c-.704-7.424-7.872-10.88-16.768-10.88-7.808 0-16.064 2.752-16.064 10.048 0 6.208 5.632 8.96 15.872 9.92 5.44.512 7.808 1.216 7.808 3.52 0 2.432-4.16 2.944-7.104 2.944-3.264 0-8-.512-8.576-4.352h-9.152c.64 8.064 8.576 11.2 17.216 11.2 8.384 0 16.768-2.368 16.768-9.984 0-5.632-3.84-9.088-14.592-10.048-6.656-.512-9.024-1.216-9.024-3.456 0-2.368 4.032-2.944 6.72-2.944 3.136 0 6.976.896 7.68 4.032zm32.6 15.04c-5.056 0-9.728-1.984-10.944-6.656h29.12c.32-.832.512-2.112.512-3.392 0-9.984-8.512-15.872-19.328-15.872-11.456 0-19.648 6.592-19.648 16.832 0 10.112 8.448 16.384 20.352 16.384 8.64 0 17.6-3.2 18.624-11.136h-9.536c-1.152 3.008-5.312 3.84-9.152 3.84zm-.64-18.944c5.056 0 8.576 2.176 9.6 6.016h-19.648c1.344-3.776 4.864-6.016 10.048-6.016zM580.231 63V16.92h-9.536V63h9.536zm23.913-38.656c.192 0 .768 0 1.472.064l4.16.256v-7.168l-6.272-.512c-.896-.064-1.408-.064-1.792-.064-6.848-.128-10.944 3.776-10.944 10.368V31h-7.488v6.976h7.488V63h9.536V37.976h8.832V31h-8.832v-3.136c0-2.112 1.088-3.584 3.84-3.52zM610.408 63h10.816V52.568h-10.816V63z" fill="#fff"/><path d="M666.84 18.2h-22.912V63h22.912c16.64 0 23.232-9.088 23.232-22.336 0-14.016-7.616-22.464-23.232-22.464zm.768 36.672h-13.76V26.328h13.76c9.28 0 12.544 6.848 12.544 14.336 0 7.424-3.712 14.208-12.544 14.208zm45.997 8.768c11.456 0 19.648-6.08 19.648-16.64s-8.192-16.64-19.648-16.64c-11.584 0-19.648 6.08-19.648 16.64s8.064 16.64 19.648 16.64zm0-7.232c-6.144 0-9.984-3.84-9.984-9.408s3.84-9.408 9.984-9.408c6.08 0 9.984 3.84 9.984 9.408s-3.904 9.408-9.984 9.408zm45.643-26.048c-7.744 0-10.752 3.392-11.904 5.056h-.256l.32-3.712V31h-9.6v32h9.6V48.024c0-6.976 4.416-10.688 9.984-10.688 5.632 0 8.064 3.136 8.064 9.728V63h9.536V44.632c0-10.624-6.784-14.272-15.744-14.272zM779.69 18.2v10.432h5.44c0 3.264-.832 4.672-5.12 4.672h-1.472v6.784h2.176c6.976 0 9.856-2.752 9.856-10.176V18.2h-10.88zm30.736 34.176v-14.4h10.048V31h-10.048V19.48l-9.6 1.28V31h-7.104v6.976h7.104v14.976c0 6.592 4.16 10.496 11.008 10.368.384 0 .896 0 1.728-.064l6.336-.512v-7.168l-4.224.256c-.64.064-1.216.064-1.408.064-2.752.064-3.84-1.408-3.84-3.52zm47.531 3.904c-5.056 0-9.728-1.984-10.944-6.656h29.12c.32-.832.512-2.112.512-3.392 0-9.984-8.512-15.872-19.328-15.872-11.456 0-19.648 6.592-19.648 16.832 0 10.112 8.448 16.384 20.352 16.384 8.64 0 17.6-3.2 18.624-11.136h-9.536c-1.152 3.008-5.312 3.84-9.152 3.84zm-.64-18.944c5.056 0 8.576 2.176 9.6 6.016h-19.648c1.344-3.776 4.864-6.016 10.048-6.016zm61.71 15.552V16.92h-9.472v17.6h-.256c-2.048-2.56-6.016-4.16-11.2-4.16-10.816 0-17.6 6.144-17.6 16.64 0 10.432 6.784 16.576 17.472 16.576 5.44 0 9.472-1.92 11.712-5.056h.256c.256 1.856.576 3.328.896 4.48h9.216v-.704c-.704-1.408-1.024-5.184-1.024-9.408zm-19.136 3.264c-5.952 0-9.728-3.392-9.728-9.152 0-5.824 3.776-9.216 9.728-9.216 5.824 0 9.664 3.392 9.664 9.216 0 5.76-3.84 9.152-9.664 9.152zm24.258-30.272h10.816v-8.96h-10.816v8.96zM934.261 63V31h-9.536v32h9.536zm19.69-10.624v-14.4h10.048V31h-10.048V19.48l-9.6 1.28V31h-7.104v6.976h7.104v14.976c0 6.592 4.16 10.496 11.008 10.368.384 0 .896 0 1.728-.064l6.336-.512v-7.168l-4.224.256c-.64.064-1.216.064-1.408.064-2.752.064-3.84-1.408-3.84-3.52zM1019.85 31h-10.11l-9.858 21.568h-.256L989.77 31h-10.176l15.488 32.064V77.08h9.278V62.936L1019.85 31zm19.95 32.64c11.45 0 19.65-6.08 19.65-16.64s-8.2-16.64-19.65-16.64c-11.59 0-19.65 6.08-19.65 16.64s8.06 16.64 19.65 16.64zm0-7.232c-6.15 0-9.99-3.84-9.99-9.408s3.84-9.408 9.99-9.408c6.08 0 9.98 3.84 9.98 9.408s-3.9 9.408-9.98 9.408zm60.18-3.52V31h-9.47v14.976c0 6.976-3.84 10.688-9.22 10.688-5.31 0-8.13-3.136-8.13-9.728V31h-9.53v18.368c0 10.624 7.16 14.272 15.36 14.272 7.55 0 10.49-3.392 11.58-5.056h.32c.26 1.792.58 3.264.83 4.416h9.28v-.704c-.7-1.408-1.02-5.184-1.02-9.408zm24.99-22.016c-1.09-.128-2.11-.192-2.69-.192-3.84 0-5.25 1.664-7.29 5.632h-.26l.45-4.608V31h-9.47v32h9.47V49.176c0-5.632 1.85-10.048 7.61-10.048.2 0 .58 0 1.48.064l3.45.32v-8.256l-2.75-.384zm28.56 10.368h9.22c-.71-7.424-7.87-10.88-16.77-10.88-7.81 0-16.06 2.752-16.06 10.048 0 6.208 5.63 8.96 15.87 9.92 5.44.512 7.81 1.216 7.81 3.52 0 2.432-4.16 2.944-7.11 2.944-3.26 0-8-.512-8.57-4.352h-9.16c.64 8.064 8.58 11.2 17.22 11.2 8.38 0 16.77-2.368 16.77-9.984 0-5.632-3.84-9.088-14.59-10.048-6.66-.512-9.03-1.216-9.03-3.456 0-2.368 4.03-2.944 6.72-2.944 3.14 0 6.98.896 7.68 4.032zm32.6 15.04c-5.05 0-9.73-1.984-10.94-6.656h29.12c.32-.832.51-2.112.51-3.392 0-9.984-8.51-15.872-19.33-15.872-11.45 0-19.65 6.592-19.65 16.832 0 10.112 8.45 16.384 20.36 16.384 8.64 0 17.6-3.2 18.62-11.136h-9.54c-1.15 3.008-5.31 3.84-9.15 3.84zm-.64-18.944c5.06 0 8.58 2.176 9.6 6.016h-19.65c1.35-3.776 4.87-6.016 10.05-6.016zM1219.23 63V16.92h-9.53V63h9.53zm23.91-38.656c.2 0 .77 0 1.48.064l4.16.256v-7.168l-6.28-.512c-.89-.064-1.4-.064-1.79-.064-6.85-.128-10.94 3.776-10.94 10.368V31h-7.49v6.976h7.49V63h9.53V37.976h8.84V31h-8.84v-3.136c0-2.112 1.09-3.584 3.84-3.52zM1249.41 63h10.81V52.568h-10.81V63z" stroke="#fff" stroke-width="1.5"/></svg>