<svg width="64" height="56" viewBox="0 0 64 56" fill="none" xmlns="http://www.w3.org/2000/svg">
<path d="M21.7436 10.9966V53.5706C21.7436 54.1798 21.5967 54.691 21.3028 55.1152C21.0089 55.5394 20.5891 55.7461 20.0223 55.7461C19.6235 55.7461 19.2351 55.6482 18.8678 55.4524L2.58907 47.0116C2.09578 46.7723 1.68645 46.3589 1.35059 45.7933C1.01473 45.2277 0.836304 44.6621 0.836304 44.1073V2.72982C0.836304 2.25121 0.951756 1.83787 1.18266 1.50067C1.41356 1.16348 1.75992 0.989437 2.20074 0.989437C2.5261 0.989437 3.04039 1.17435 3.74359 1.53331L21.6386 10.8226C21.7121 10.8878 21.7436 10.9531 21.7436 10.9966ZM23.9897 14.6732L42.6929 46.1087L23.9897 36.4496V14.6732ZM63.6002 15.3258V53.5815C63.6002 54.1906 63.4322 54.6801 63.1069 55.0499C62.7815 55.4198 62.3407 55.6156 61.7739 55.6156C61.2176 55.6156 60.6614 55.4633 60.1261 55.1478L44.6765 47.1639L63.6002 15.3258ZM63.4952 10.964C63.4952 11.0401 60.5039 16.109 54.5109 26.1923C48.5179 36.2756 45.0124 42.1711 43.9838 43.8898L30.329 20.8733L41.6748 1.75085C42.0736 1.07646 42.6824 0.739258 43.501 0.739258C43.8264 0.739258 44.1308 0.815399 44.4142 0.956805L63.3588 10.7573C63.4427 10.8008 63.4952 10.8661 63.4952 10.964Z" fill="#745CFF"/>
</svg>
