<svg width="54" height="55" viewBox="0 0 54 55" fill="none" xmlns="http://www.w3.org/2000/svg">
<g clip-path="url(#clip0)">
<path d="M26.9181 5.5295C33.9946 5.5295 34.8253 5.56105 37.6222 5.68723C40.2089 5.80289 41.6074 6.234 42.5432 6.60202C43.6893 7.02262 44.7303 7.70609 45.5925 8.57883C46.4758 9.43053 47.1487 10.4715 47.5693 11.6281C47.9374 12.564 48.3685 13.9625 48.4841 16.5491C48.6103 19.3461 48.6418 20.1768 48.6418 27.2533C48.6418 34.3298 48.6103 35.1605 48.4841 37.9575C48.3685 40.5441 47.9374 41.9426 47.5693 42.8784C46.6756 45.1917 44.8565 47.0108 42.5432 47.9046C41.6074 48.2726 40.2089 48.7037 37.6222 48.8194C34.8253 48.9455 33.9946 48.9771 26.9181 48.9771C19.8415 48.9771 19.0109 48.9455 16.2139 48.8194C13.6272 48.7037 12.2287 48.2726 11.2929 47.9046C10.1468 47.484 9.10582 46.8005 8.2436 45.9278C7.36035 45.0761 6.6874 44.0351 6.2668 42.8784C5.89878 41.9426 5.46767 40.5441 5.352 37.9575C5.22583 35.1605 5.19428 34.3298 5.19428 27.2533C5.19428 20.1768 5.22583 19.3461 5.352 16.5491C5.46767 13.9625 5.89878 12.564 6.2668 11.6281C6.6874 10.482 7.37087 9.44105 8.2436 8.57883C9.09531 7.69557 10.1363 7.02262 11.2929 6.60202C12.2287 6.234 13.6272 5.80289 16.2139 5.68723C19.0109 5.55053 19.8415 5.5295 26.9181 5.5295ZM26.9181 0.755737C19.7259 0.755737 18.8216 0.787282 15.9931 0.913461C13.1751 1.03964 11.2509 1.49178 9.56848 2.1437C7.80198 2.80614 6.20371 3.84712 4.87883 5.20354C3.52241 6.5179 2.48144 8.12668 1.819 9.89319C1.16707 11.5756 0.714933 13.4998 0.588754 16.3283C0.462575 19.1463 0.43103 20.0506 0.43103 27.2428C0.43103 34.435 0.462575 35.3393 0.588754 38.1678C0.714933 40.9858 1.16707 42.91 1.819 44.6029C2.48144 46.3694 3.52241 47.9677 4.87883 49.2925C6.20371 50.6384 7.80198 51.6794 9.56848 52.3419C11.2509 52.9938 13.1751 53.4459 16.0036 53.5721C18.8321 53.6983 19.7259 53.7298 26.9286 53.7298C34.1313 53.7298 35.0251 53.6983 37.8536 53.5721C40.6716 53.4459 42.5958 52.9938 44.2887 52.3419C47.8427 50.9644 50.6607 48.1569 52.0382 44.5924C52.6901 42.91 53.1422 40.9858 53.2684 38.1572C53.3946 35.3287 53.4261 34.435 53.4261 27.2323C53.4261 20.0296 53.3946 19.1358 53.2684 16.3073C53.1422 13.4893 52.6901 11.5651 52.0382 9.87216C51.3757 8.10566 50.3347 6.50739 48.9783 5.18251C47.6534 3.8366 46.0552 2.79563 44.2887 2.12267C42.6063 1.47075 40.6821 1.01861 37.8536 0.892431C35.0145 0.787282 34.1103 0.755737 26.9181 0.755737Z" fill="#745CFF"/>
<path d="M26.918 13.6365C19.4104 13.6365 13.3118 19.7246 13.3118 27.2428C13.3118 34.7609 19.4104 40.849 26.918 40.849C34.4257 40.849 40.5243 34.7504 40.5243 27.2428C40.5243 19.7351 34.4257 13.6365 26.918 13.6365ZM26.918 36.0753C22.0391 36.0753 18.0855 32.1217 18.0855 27.2428C18.0855 22.3638 22.0391 18.4102 26.918 18.4102C31.797 18.4102 35.7506 22.3638 35.7506 27.2428C35.7506 32.1217 31.797 36.0753 26.918 36.0753Z" fill="#745CFF"/>
<path d="M41.0606 16.2757C42.8144 16.2757 44.2361 14.854 44.2361 13.1002C44.2361 11.3464 42.8144 9.92468 41.0606 9.92468C39.3069 9.92468 37.8851 11.3464 37.8851 13.1002C37.8851 14.854 39.3069 16.2757 41.0606 16.2757Z" fill="#745CFF"/>
</g>
<defs>
<clipPath id="clip0">
<rect width="53.8363" height="53.8363" fill="white" transform="translate(0 0.324585)"/>
</clipPath>
</defs>
</svg>
