<svg width="57" height="56" viewBox="0 0 57 56" fill="none" xmlns="http://www.w3.org/2000/svg">
<path d="M0.581543 43.3406C0.581543 43.0687 0.581543 42.8185 0.581543 42.5466C0.739314 41.7743 1.28626 41.5023 1.96993 41.3827C4.77826 40.8171 7.11328 39.3377 9.06965 37.2275C10.5843 35.585 11.8149 33.725 12.6774 31.6365C13.1191 30.5488 12.8772 29.8418 11.8885 29.2544C11.2784 28.8954 10.6158 28.667 9.95317 28.4386C9.09068 28.1231 8.21768 27.8077 7.44986 27.2747C6.661 26.6873 6.04043 26.0021 6.06147 24.9143C6.06147 24.414 6.24028 24.0006 6.5453 23.6199C7.29209 22.6627 8.8698 21.9774 10.3213 22.6192C11.026 22.9346 11.7518 23.2283 12.5406 23.2283C13.2453 23.2283 13.3505 23.1195 13.2453 22.4125C13.1612 21.6837 13.1402 20.9332 13.1191 20.2044C13.077 18.8882 12.8982 17.5503 12.9824 16.245C13.1086 14.2654 13.1191 12.2639 13.8869 10.3821C15.5383 6.37925 18.3045 3.49674 22.2383 1.89777C25.2465 0.668621 28.3493 0.461951 31.5153 0.918801C34.3341 1.31039 36.9005 2.35462 39.0988 4.25816C41.9071 6.67294 43.8635 9.64246 44.2422 13.5148C44.3684 14.6569 44.4841 15.8099 44.442 16.9521C44.3789 18.7686 44.2842 20.5851 44.2001 22.3908C44.1791 23.1631 44.3263 23.348 45.0521 23.1848C45.6411 23.0543 46.2196 22.8476 46.7665 22.6192C47.913 22.1188 49.0279 22.2276 50.0692 22.9129C50.8791 23.435 51.4365 24.1203 51.3419 25.1862C51.2788 25.9368 50.9001 26.5024 50.3742 26.9593C49.6064 27.6228 48.7018 28.0252 47.7552 28.3516C47.0715 28.6017 46.3668 28.8084 45.6937 29.1674C44.5051 29.8091 44.2632 30.5597 44.8101 31.8323C45.578 33.5618 46.5877 35.1282 47.7762 36.5857C49.5117 38.6742 51.6048 40.197 54.1292 41.0672C54.592 41.2304 55.0968 41.2957 55.5596 41.4479C56.9059 41.8069 57.3582 43.4494 56.4116 44.5371C55.749 45.2877 54.8549 45.6684 53.9714 46.0164C52.6987 46.495 51.3734 46.7887 50.0376 47.0172C49.5959 47.1042 49.354 47.3108 49.2698 47.7459C49.1436 48.3116 49.0279 48.8554 48.8701 49.3884C48.5861 50.4544 47.8604 50.933 46.8086 50.8025C45.5149 50.6611 44.2422 50.3674 42.9379 50.3456C41.2655 50.3239 39.6668 50.6611 38.2574 51.6836C37.0057 52.5646 35.7751 53.5001 34.4498 54.2724C32.8405 55.2078 31.1051 55.6864 29.2644 55.7735C26.6454 55.904 24.2262 55.2513 22.0279 53.7503C21.2391 53.2064 20.4397 52.6625 19.6719 52.086C18.1362 50.9004 16.4218 50.3348 14.5496 50.3565C13.34 50.3565 12.1514 50.5849 10.9629 50.8134C9.55348 51.0853 8.78566 50.5632 8.39649 49.1274C8.27027 48.6488 8.15457 48.1702 8.04939 47.6916C7.94421 47.2782 7.72333 47.0607 7.30261 47.0063C5.96681 46.7561 4.64153 46.4842 3.36884 46.0056C2.84293 45.8206 2.3591 45.5705 1.87527 45.2985C1.19159 44.8417 0.644652 44.2761 0.581543 43.3406Z" fill="#745CFF"/>
</svg>
