<svg width="498" height="132" fill="none" xmlns="http://www.w3.org/2000/svg"><path d="M492.046 95.031c-.257 2.14-1.991 4.214-5.456 6.144-3.442 1.918-8.428 3.598-14.832 5.017-12.798 2.836-31.077 4.59-53.529 5.213-44.891 1.246-106.332-2.034-173.677-10.14-67.344-8.106-127.808-19.499-171.122-31.36-21.663-5.933-39.003-11.974-50.764-17.766-5.884-2.898-10.329-5.714-13.217-8.393-2.908-2.698-4.1-5.123-3.843-7.263.258-2.14 1.991-4.214 5.456-6.144 3.442-1.918 8.428-3.598 14.832-5.017 12.799-2.836 31.078-4.59 53.53-5.213 44.891-1.246 106.332 2.034 173.676 10.14 67.344 8.106 127.809 19.499 171.123 31.36 21.662 5.933 39.003 11.974 50.763 17.766 5.885 2.898 10.329 5.714 13.218 8.393 2.908 2.698 4.1 5.123 3.842 7.263z" stroke="#8570FF" stroke-width="1.5"/></svg>