<svg width="66" height="55" viewBox="0 0 66 55" fill="none" xmlns="http://www.w3.org/2000/svg">
<path d="M65.5815 6.456C63.1888 7.55462 60.6275 8.29428 57.9292 8.6206C60.6802 6.92373 62.7883 4.22614 63.7896 1.01732C61.2072 2.59454 58.3613 3.73666 55.3152 4.35667C52.8803 1.68084 49.4231 0.0166016 45.5864 0.0166016C38.2292 0.0166016 32.2528 6.17319 32.2528 13.7656C32.2528 14.8425 32.3688 15.8976 32.6007 16.8983C21.5227 16.3218 11.6991 10.8505 5.13246 2.52927C3.98356 4.55246 3.33005 6.92373 3.33005 9.4364C3.33005 14.2116 5.68056 18.4211 9.25374 20.8794C7.07189 20.8032 5.01651 20.1832 3.21411 19.1499V19.3239C3.21411 25.9809 7.80971 31.5501 13.902 32.8119C12.7848 33.1273 11.6042 33.2905 10.3921 33.2905C9.52779 33.2905 8.6951 33.2034 7.88349 33.0403C9.58049 38.5116 14.5028 42.4818 20.3317 42.5906C15.7677 46.278 10.0232 48.4644 3.78329 48.4644C2.70817 48.4644 1.64359 48.3991 0.600098 48.2795C6.50271 52.1844 13.5015 54.4687 21.0273 54.4687C45.5442 54.4687 58.9516 33.508 58.9516 15.3319L58.9094 13.548C61.534 11.6336 63.8002 9.21885 65.5815 6.456Z" fill="#745CFF"/>
</svg>
