<svg width="343" height="80" fill="none" xmlns="http://www.w3.org/2000/svg"><path d="M65.841 35.643H41.138v43.564H26.131V35.643H1.428V23.56H65.84v12.083zm66.174 42.13V79.2h-15.013c-1.113-1.829-1.827-4.528-1.827-7.87v-5.964c0-3.813-2.148-5.806-6.908-5.806h-23.27v19.633H70.542V23.56h40.588c15.327 0 20.65 7.713 20.65 16.297 0 7.713-4.688 11.762-10.325 13.119v.32c6.593.715 9.055 4.772 9.055 9.778v7.234c-.007 3.093.393 5.243 1.506 7.464zm-15.491-36.01c0-4.612-3.254-6.598-7.942-6.598h-23.59V48.12h23.59c4.845 0 7.942-1.985 7.942-6.356zm72.709 25.832h-31.611L151.9 79.207h-15.884l28.357-55.647h18.031l28.436 55.647h-15.806l-5.801-11.612zm-5.487-10.89L173.506 36.2h-.321l-10.168 20.511h20.729v-.007zm55.478-22.254c-8.1 0-14.136 1.514-14.136 5.085 0 3.42 3.339 4.849 17.396 5.72 21.443 1.429 29.47 7.235 29.47 17.969C271.954 77.058 255.592 80 240.5 80c-16.597 0-31.454-5.485-32.881-19.711h15.328c1.348 6.356 10.325 7.87 18.424 7.87 8.342 0 15.171-1.193 15.171-5.085 0-3.578-2.619-5.007-16.598-5.963-18.981-1.272-30.262-5.642-30.262-16.612 0-13.99 15.17-17.726 29.705-17.726 15.727 0 31.055 4.614 32.567 19.318h-15.092c-1.591-5.812-8.819-7.64-17.638-7.64zM342.437 23.56v55.647h-14.856v-22.26h-36.855v22.26h-14.935V23.56h14.935v20.989h36.855v-20.99h14.856z" fill="#fff"/><path d="M1.558 20.55L0 7.844 63.837 0l1.559 12.706L1.558 20.55z" fill="url(#paint0_linear)"/><defs><linearGradient id="paint0_linear" x1="63.551" y1="6.442" x2="2.068" y2="14.068" gradientUnits="userSpaceOnUse"><stop stop-color="#BB68FD"/><stop offset=".11" stop-color="#9B85FF"/><stop offset=".257" stop-color="#77CCE6"/><stop offset=".397" stop-color="#8EFFA7"/><stop offset=".623" stop-color="#F1FF6B"/><stop offset=".812" stop-color="#F0AF59"/><stop offset="1" stop-color="#FF6E97"/></linearGradient></defs></svg>