<svg width="341" height="34" fill="none" xmlns="http://www.w3.org/2000/svg"><path d="M13.333.8H.445V26h12.888c9.36 0 13.068-5.112 13.068-12.564C26.401 5.552 22.117.8 13.333.8zm.432 20.628h-7.74V5.372h7.74c5.22 0 7.056 3.852 7.056 8.064 0 4.176-2.088 7.992-7.056 7.992zm25.873 4.932c6.444 0 11.052-3.42 11.052-9.36 0-5.94-4.608-9.36-11.052-9.36-6.516 0-11.052 3.42-11.052 9.36 0 5.94 4.536 9.36 11.052 9.36zm0-4.068c-3.456 0-5.616-2.16-5.616-5.292 0-3.132 2.16-5.292 5.616-5.292 3.42 0 5.616 2.16 5.616 5.292 0 3.132-2.196 5.292-5.616 5.292zM65.313 7.64c-4.356 0-6.048 1.908-6.696 2.844h-.144l.18-2.088V8h-5.4v18h5.4v-8.424c0-3.924 2.484-6.012 5.616-6.012 3.168 0 4.536 1.764 4.536 5.472V26h5.364V15.668c0-5.976-3.816-8.028-8.856-8.028zM76.81.8v5.868h3.06c0 1.836-.468 2.628-2.88 2.628h-.828v3.816h1.224c3.924 0 5.544-1.548 5.544-5.724V.8h-6.12zm17.29 19.224v-8.1h5.651V8H94.1V1.52l-5.4.72V8h-3.996v3.924H88.7v8.424c0 3.708 2.34 5.904 6.192 5.832.216 0 .504 0 .972-.036l3.564-.288v-4.032l-2.376.144a8.06 8.06 0 0 1-.792.036c-1.548.036-2.16-.792-2.16-1.98zm26.736 2.196c-2.844 0-5.472-1.116-6.156-3.744h16.38c.18-.468.288-1.188.288-1.908 0-5.616-4.788-8.928-10.872-8.928-6.444 0-11.052 3.708-11.052 9.468 0 5.688 4.752 9.216 11.448 9.216 4.86 0 9.9-1.8 10.476-6.264h-5.364c-.648 1.692-2.988 2.16-5.148 2.16zm-.36-10.656c2.844 0 4.824 1.224 5.4 3.384h-11.052c.756-2.124 2.736-3.384 5.652-3.384zm34.712 8.748V.08h-5.328v9.9h-.144c-1.152-1.44-3.384-2.34-6.3-2.34-6.084 0-9.9 3.456-9.9 9.36 0 5.868 3.816 9.324 9.828 9.324 3.06 0 5.328-1.08 6.588-2.844h.144c.144 1.044.324 1.872.504 2.52h5.184v-.396c-.396-.792-.576-2.916-.576-5.292zm-10.764 1.836c-3.348 0-5.472-1.908-5.472-5.148 0-3.276 2.124-5.184 5.472-5.184 3.276 0 5.436 1.908 5.436 5.184 0 3.24-2.16 5.148-5.436 5.148zM158.07 5.12h6.084V.08h-6.084v5.04zM163.758 26V8h-5.364v18h5.364zm11.075-5.976v-8.1h5.652V8h-5.652V1.52l-5.4.72V8h-3.996v3.924h3.996v8.424c0 3.708 2.34 5.904 6.192 5.832.216 0 .504 0 .972-.036l3.564-.288v-4.032l-2.376.144a8.06 8.06 0 0 1-.792.036c-1.548.036-2.16-.792-2.16-1.98zM211.902 8h-5.688l-5.544 12.132h-.144L194.982 8h-5.724l8.712 18.036v7.884h5.22v-7.956L211.902 8zm11.22 18.36c6.444 0 11.052-3.42 11.052-9.36 0-5.94-4.608-9.36-11.052-9.36-6.516 0-11.052 3.42-11.052 9.36 0 5.94 4.536 9.36 11.052 9.36zm0-4.068c-3.456 0-5.616-2.16-5.616-5.292 0-3.132 2.16-5.292 5.616-5.292 3.42 0 5.616 2.16 5.616 5.292 0 3.132-2.196 5.292-5.616 5.292zm33.851-1.98V8h-5.328v8.424c0 3.924-2.16 6.012-5.184 6.012-2.988 0-4.572-1.764-4.572-5.472V8h-5.364v10.332c0 5.976 4.032 8.028 8.64 8.028 4.248 0 5.904-1.908 6.516-2.844h.18c.144 1.008.324 1.836.468 2.484h5.22v-.396c-.396-.792-.576-2.916-.576-5.292zm14.058-12.384a14.629 14.629 0 0 0-1.512-.108c-2.16 0-2.952.936-4.104 3.168h-.144l.252-2.592V8h-5.328v18h5.328v-7.776c0-3.168 1.044-5.652 4.284-5.652.108 0 .324 0 .828.036l1.944.18V8.144l-1.548-.216zm16.067 5.832h5.184c-.396-4.176-4.428-6.12-9.432-6.12-4.392 0-9.036 1.548-9.036 5.652 0 3.492 3.168 5.04 8.928 5.58 3.06.288 4.392.684 4.392 1.98 0 1.368-2.34 1.656-3.996 1.656-1.836 0-4.5-.288-4.824-2.448h-5.148c.36 4.536 4.824 6.3 9.684 6.3 4.716 0 9.432-1.332 9.432-5.616 0-3.168-2.16-5.112-8.208-5.652-3.744-.288-5.076-.684-5.076-1.944 0-1.332 2.268-1.656 3.78-1.656 1.764 0 3.924.504 4.32 2.268zm18.337 8.46c-2.844 0-5.472-1.116-6.156-3.744h16.38c.18-.468.288-1.188.288-1.908 0-5.616-4.788-8.928-10.872-8.928-6.444 0-11.052 3.708-11.052 9.468 0 5.688 4.752 9.216 11.448 9.216 4.86 0 9.9-1.8 10.476-6.264h-5.364c-.648 1.692-2.988 2.16-5.148 2.16zm-.36-10.656c2.844 0 4.824 1.224 5.4 3.384h-11.052c.756-2.124 2.736-3.384 5.652-3.384zM324.053 26V.08h-5.364V26h5.364zm13.451-21.744c.108 0 .432 0 .828.036l2.34.144V.404l-3.528-.288c-.504-.036-.792-.036-1.008-.036-3.852-.072-6.156 2.124-6.156 5.832V8h-4.212v3.924h4.212V26h5.364V11.924h4.968V8h-4.968V6.236c0-1.188.612-2.016 2.16-1.98z" fill="#fff"/></svg>