<?xml version="1.0" encoding="utf-8"?>
<!-- Generator: Adobe Illustrator 22.1.0, SVG Export Plug-In . SVG Version: 6.00 Build 0)  -->
<svg version="1.1" id="Layer_1" xmlns="http://www.w3.org/2000/svg" xmlns:xlink="http://www.w3.org/1999/xlink" x="0px" y="0px"
	 viewBox="0 0 1678.6 113.9" style="enable-background:new 0 0 1678.6 113.9;" xml:space="preserve">
<style type="text/css">
	.st0{fill:#DBDBDB;}
	.st1{fill:none;stroke:#DBDBDB;stroke-width:1.528;stroke-miterlimit:10;}
</style>
<g>
	<path class="st0" d="M72.8,63.2v40.3H47.9V63.2L1.1,11.5H32l28,32h0.5l28.2-31.9h30.9L72.8,63.2z"/>
	<path class="st0" d="M112.8,57.5c0-29.1,23-47.3,59.4-47.3s59.4,18.2,59.4,47.3s-23,47.3-59.4,47.3S112.8,86.6,112.8,57.5z
		 M206.5,57.5c0-16.4-13-27.9-34.4-27.9c-21.2,0-34.4,11.5-34.4,27.9s13.2,27.9,34.4,27.9C193.5,85.5,206.5,74,206.5,57.5z"/>
	<path class="st0" d="M268.3,11.5V57c0,16.3,6.8,28,28.6,28c20.4,0,28.6-11.6,28.6-28V11.5h25v46.9c0,32.8-21.7,46.4-53.5,46.4
		c-33,0-53.5-13.6-53.5-46.4V11.5H268.3z"/>
	<path class="st0" d="M432.2,29.6c-13.4,0-23.4,2.5-23.4,8.4c0,5.7,5.5,8,28.8,9.4c35.5,2.3,48.7,12,48.7,29.7
		c0,22.9-27.1,27.8-52.1,27.8c-27.5,0-52.1-9.1-54.4-32.6h25.3c2.2,10.5,17.1,13,30.5,13c13.8,0,25.1-1.9,25.1-8.4
		c0-5.9-4.4-8.3-27.5-9.8c-31.4-2.1-50.1-9.3-50.1-27.5c0-23.1,25.1-29.3,49.1-29.3c26,0,51.4,7.6,53.9,31.9h-25
		C458.8,32.6,446.8,29.6,432.2,29.6z"/>
	<path class="st0" d="M610.5,11.5v92H586V66.7h-61v36.8h-24.7v-92H525v34.8h61V11.5H610.5z"/>
	<path class="st0" d="M623.2,57.5c0-29.1,23-47.3,59.4-47.3S742,28.4,742,57.5s-23,47.3-59.4,47.3S623.2,86.6,623.2,57.5z M717,57.5
		c0-16.4-13-27.9-34.4-27.9c-21.2,0-34.4,11.5-34.4,27.9s13.2,27.9,34.4,27.9C704,85.5,717,74,717,57.5z"/>
	<path class="st0" d="M750,57.5c0-29.1,23-47.3,59.4-47.3s59.4,18.2,59.4,47.3s-23,47.3-59.4,47.3C773,104.9,750,86.6,750,57.5z
		 M843.7,57.5c0-16.4-13-27.9-34.4-27.9c-21.2,0-34.4,11.5-34.4,27.9s13.2,27.9,34.4,27.9C830.6,85.5,843.7,74,843.7,57.5z"/>
	<path class="st0" d="M979.2,31.6h-40.9v72h-24.8v-72h-40.9V11.5h106.6L979.2,31.6L979.2,31.6z"/>
	<path class="st1" d="M1170.7,11.5l-31,92h-30.1l-20.4-68.2h-0.5l-20.3,68.2h-30.1l-31.2-92h25.1l21.1,67.7h0.5l20.2-67.7h30.1
		l20.2,67.7h0.5l20.9-67.7H1170.7z"/>
	<path class="st1" d="M1202,30.8v16.8h60.2v19.2H1202v17.6h67.7v19.2h-91.2v-92h91.2v19.2L1202,30.8L1202,30.8z"/>
	<path class="st1" d="M1331.6,30.8v16.8h60.2v19.2h-60.2v17.6h67.7v19.2h-91.2v-92h91.2v19.2L1331.6,30.8L1331.6,30.8z"/>
	<path class="st1" d="M1524.6,57.7c0,27.3-15.4,45.9-53,45.9H1414V11.5h57.6C1506.1,11.5,1524.6,28.2,1524.6,57.7z M1499.1,57.5
		c0-13.8-7.5-26.4-26.1-26.4h-33.6V84h33.6C1490.7,84,1499.1,71.6,1499.1,57.5z"/>
	<path class="st1" d="M1537.8,103.6V11.5h24.8v92L1537.8,103.6L1537.8,103.6z"/>
	<path class="st1" d="M1678,31.6h-40.9v72h-24.8v-72h-40.9V11.5H1678L1678,31.6L1678,31.6z"/>
</g>
</svg>
