<svg xmlns="http://www.w3.org/2000/svg" width="223" height="52" viewBox="0 0 223 52">
    <defs>
        <linearGradient id="prefix__a" x1="100%" x2="0%" y1="50%" y2="50%">
            <stop offset="2.083%" stop-color="#BB68FD"/>
            <stop offset="17.188%" stop-color="#9B85FF"/>
            <stop offset="31.771%" stop-color="#77CCE6"/>
            <stop offset="46.875%" stop-color="#8EFFA7"/>
            <stop offset="62.5%" stop-color="#F1FF6B"/>
            <stop offset="78.646%" stop-color="#F0C559"/>
            <stop offset="94.792%" stop-color="#FF5D9C"/>
        </linearGradient>
    </defs>
    <g fill="none">
        <path fill="#FFF" d="M42.877 23.061L26.789 23.061 26.789 51.244 17.017 51.244 17.017 23.061.93 23.061.93 15.243 42.877 15.243zM85.97 50.316v.924h-9.776c-.725-1.183-1.19-2.93-1.19-5.092V42.29c0-2.467-1.398-3.756-4.498-3.756H55.352v12.702h-9.414V15.243h26.431c9.982 0 13.448 4.99 13.448 10.543 0 4.99-3.053 7.61-6.724 8.488v.208c4.294.462 5.897 3.086 5.897 6.325v4.68c-.004 2.001.256 3.392.98 4.829zM75.883 27.02c0-2.984-2.119-4.269-5.172-4.269H55.348v8.381H70.71c3.156 0 5.172-1.284 5.172-4.112zM123.232 43.732h-20.585l-3.727 7.512H88.576l18.467-36.001h11.742l18.518 36.001H127.01l-3.778-7.512zm-3.573-7.046l-6.669-13.265h-.208l-6.622 13.27h13.5v-.005zM155.786 22.288c-5.274 0-9.206.98-9.206 3.29 0 2.213 2.175 3.137 11.33 3.7 13.962.925 19.19 4.681 19.19 11.625 0 8.95-10.654 10.853-20.483 10.853-10.808 0-20.483-3.548-21.412-12.752h9.981c.879 4.112 6.724 5.092 11.998 5.092 5.432 0 9.88-.772 9.88-3.29 0-2.315-1.706-3.24-10.809-3.858-12.36-.823-19.707-3.65-19.707-10.747 0-9.051 9.879-11.468 19.344-11.468 10.241 0 20.224 2.985 21.208 12.498h-9.828c-1.035-3.76-5.744-4.943-11.486-4.943zM223 15.243L223 51.244 213.325 51.244 213.325 36.843 189.325 36.843 189.325 51.244 179.599 51.244 179.599 15.243 189.325 15.243 189.325 28.822 213.325 28.822 213.325 15.243z"/>
        <path fill="url(#prefix__a)" d="M1.015 13.292L0 5.074 41.572 0 42.587 8.219z"/>
    </g>
</svg>
