<?xml version="1.0" encoding="utf-8"?>
<!-- Generator: Adobe Illustrator 21.0.2, SVG Export Plug-In . SVG Version: 6.00 Build 0)  -->
<svg version="1.1" id="Layer_1" xmlns="http://www.w3.org/2000/svg" xmlns:xlink="http://www.w3.org/1999/xlink" x="0px" y="0px"
	 viewBox="0 0 301.7 101.1" style="enable-background:new 0 0 301.7 101.1;" xml:space="preserve">
<style type="text/css">
	.st0{fill:#745CFF;}
</style>
<g>
	<g>
		<g>
			<g>
				<path class="st0" d="M21.2,98.8c-0.8,0-1.5,0-2.3,0c-1.6,0-3.2-0.2-4.7-0.4c-1.5-0.3-2.9-0.7-4.2-1.4c-1.3-0.7-2.5-1.5-3.5-2.6
					c-1-1-1.9-2.2-2.6-3.5c-0.7-1.3-1.1-2.7-1.4-4.2c-0.3-1.6-0.4-3.1-0.4-4.7c0-0.5,0-2.3,0-2.3V21.4c0,0,0-1.7,0-2.3
					c0-1.6,0.2-3.2,0.4-4.7c0.2-1.5,0.7-2.9,1.4-4.2c0.7-1.3,1.5-2.5,2.6-3.5c1-1,2.2-1.9,3.5-2.6c1.3-0.7,2.7-1.1,4.2-1.4
					c1.6-0.3,3.1-0.4,4.7-0.4l2.3,0h259.3l2.3,0c1.6,0,3.1,0.2,4.7,0.4c1.5,0.2,2.9,0.7,4.2,1.4c2.6,1.3,4.7,3.5,6.1,6.1
					c0.7,1.3,1.1,2.7,1.4,4.2c0.3,1.6,0.4,3.2,0.4,4.8c0,0.7,0,1.5,0,2.2c0,0.9,0,1.8,0,2.8v52.8c0,0.9,0,1.8,0,2.7
					c0,0.8,0,1.6,0,2.3c0,1.6-0.2,3.1-0.4,4.7c-0.2,1.5-0.7,2.9-1.4,4.2c-0.7,1.3-1.5,2.5-2.6,3.5c-1,1-2.2,1.9-3.5,2.6
					c-1.3,0.7-2.7,1.1-4.2,1.4c-1.6,0.3-3.1,0.4-4.7,0.4c-0.7,0-1.5,0-2.3,0l-2.7,0L21.2,98.8z"/>
			</g>
		</g>
	</g>
	<g>
		<g>
			<g id="_Group__3_">
				<g id="_Group_2_3_">
					<g id="_Group_3_3_">
						<path id="_Path__3_" d="M62.9,50.2c0.1-4.5,2.4-8.6,6.2-10.9c-2.4-3.4-6.3-5.5-10.5-5.7c-4.4-0.5-8.7,2.6-10.9,2.6
							c-2.3,0-5.7-2.6-9.5-2.5c-4.9,0.2-9.4,2.9-11.7,7.2c-5.1,8.8-1.3,21.7,3.6,28.8c2.4,3.5,5.3,7.4,9,7.2c3.6-0.2,5-2.3,9.4-2.3
							c4.4,0,5.6,2.3,9.4,2.2c3.9-0.1,6.4-3.5,8.7-7c1.7-2.5,3.1-5.2,4-8.1C66,59.8,62.9,55.3,62.9,50.2z"/>
						<path id="_Path_2_3_" d="M55.8,29c2.1-2.6,3.2-5.8,2.9-9.2c-3.3,0.3-6.3,1.9-8.4,4.4c-2.1,2.4-3.2,5.6-3,8.8
							C50.6,33.1,53.7,31.6,55.8,29z"/>
					</g>
				</g>
				<g>
					<path d="M106.6,68.5H94.7L91.8,77h-5.1L98,45.7h5.3L114.6,77h-5.1L106.6,68.5z M95.9,64.6h9.5l-4.7-13.7h-0.1L95.9,64.6z"/>
					<path d="M139,65.6c0,7.1-3.8,11.7-9.5,11.7c-3,0.2-5.8-1.4-7.2-4h-0.1v11.3h-4.7V54.2h4.5V58h0.1c1.5-2.6,4.3-4.1,7.3-4
						C135.2,53.9,139,58.5,139,65.6z M134.2,65.6c0-4.6-2.4-7.7-6-7.7c-3.6,0-6,3.1-6,7.7c0,4.6,2.4,7.7,6,7.7
						C131.8,73.3,134.2,70.3,134.2,65.6L134.2,65.6z"/>
					<path d="M164.2,65.6c0,7.1-3.8,11.7-9.5,11.7c-3,0.2-5.8-1.4-7.2-4h-0.1v11.3h-4.7V54.2h4.5V58h0.1c1.5-2.6,4.3-4.1,7.3-4
						C160.4,53.9,164.2,58.5,164.2,65.6z M159.4,65.6c0-4.6-2.4-7.7-6-7.7c-3.6,0-6,3.1-6,7.7c0,4.6,2.4,7.7,6,7.7
						C157,73.3,159.4,70.3,159.4,65.6z"/>
					<path d="M180.8,68.3c0.3,3.1,3.4,5.1,7.5,5.1c4,0,6.8-2,6.8-4.8c0-2.4-1.7-3.9-5.8-4.9l-4.1-1c-5.8-1.4-8.4-4.1-8.4-8.4
						c0-5.4,4.7-9.1,11.4-9.1c6.6,0,11.2,3.7,11.3,9.1h-4.7c-0.3-3.1-2.9-5-6.6-5s-6.4,1.9-6.4,4.7c0,2.2,1.7,3.5,5.7,4.5l3.5,0.8
						c6.4,1.5,9.1,4.1,9.1,8.7c0,5.9-4.7,9.5-12.1,9.5c-6.9,0-11.6-3.6-11.9-9.3L180.8,68.3z"/>
					<path d="M210.2,48.8v5.4h4.3v3.7h-4.3v12.6c0,2,0.9,2.9,2.8,2.9c0.5,0,1,0,1.5-0.1v3.7c-0.9,0.2-1.7,0.2-2.6,0.2
						c-4.6,0-6.4-1.7-6.4-6.2V57.9h-3.3v-3.7h3.3v-5.4H210.2z"/>
					<path d="M217,65.6c0-7.2,4.2-11.7,10.8-11.7c6.6,0,10.8,4.5,10.8,11.7c0,7.2-4.2,11.7-10.8,11.7C221.2,77.3,217,72.8,217,65.6z
						 M233.9,65.6c0-4.9-2.3-7.8-6.1-7.8c-3.8,0-6.1,2.9-6.1,7.8c0,5,2.3,7.8,6.1,7.8C231.7,73.4,233.9,70.5,233.9,65.6L233.9,65.6z
						"/>
					<path d="M242.6,54.2h4.5v3.9h0.1c0.6-2.5,2.9-4.2,5.5-4.1c0.5,0,1.1,0.1,1.6,0.2v4.4c-0.7-0.2-1.4-0.3-2.1-0.3
						c-2.6-0.1-4.8,1.9-4.9,4.5c0,0.2,0,0.5,0,0.7V77h-4.7L242.6,54.2z"/>
					<path d="M275.9,70.3c-0.6,4.1-4.7,7-9.8,7c-6.6,0-10.8-4.5-10.8-11.6c0-7.2,4.1-11.8,10.6-11.8c6.3,0,10.3,4.3,10.3,11.3v1.6
						H260V67c-0.3,3.3,2.1,6.2,5.4,6.5c0.2,0,0.5,0,0.7,0c2.3,0.2,4.4-1.1,5.3-3.2L275.9,70.3z M260,63.5h11.4
						c0.2-3-2.2-5.6-5.2-5.8c-0.1,0-0.3,0-0.4,0C262.7,57.7,260,60.2,260,63.5C260,63.4,260,63.5,260,63.5z"/>
				</g>
			</g>
		</g>
		<g id="_Group_4_3_">
			<g>
				<path d="M95.3,22.1c3.7-0.3,6.9,2.5,7.1,6.2c0,0.4,0,0.9,0,1.3c0,4.8-2.6,7.6-7.1,7.6h-5.4V22.1H95.3z M92.2,35H95
					c2.6,0.2,4.9-1.8,5-4.4c0-0.3,0-0.7,0-1c0.4-2.6-1.5-5-4.1-5.3c-0.3,0-0.6-0.1-0.9,0h-2.8V35z"/>
				<path d="M105,31.5c-0.3-3,1.9-5.6,4.8-5.9c3-0.3,5.6,1.9,5.9,4.8c0,0.3,0,0.7,0,1c0.3,3-1.9,5.6-4.8,5.9c-3,0.3-5.6-1.9-5.9-4.8
					C105,32.2,105,31.8,105,31.5z M113.4,31.5c0-2.5-1.1-3.9-3-3.9c-1.9,0-3,1.4-3,3.9c0,2.5,1.1,3.9,3,3.9
					C112.3,35.4,113.4,33.9,113.4,31.5L113.4,31.5z"/>
				<path d="M130,37.1h-2.3l-2.3-8.4h-0.2l-2.3,8.4h-2.3l-3.1-11.4h2.3l2,8.7h0.2l2.3-8.7h2.2l2.3,8.7h0.2l2-8.7h2.2L130,37.1z"/>
				<path d="M135.8,25.8h2.2v1.8h0.2c0.6-1.3,1.9-2.1,3.4-2c2-0.2,3.8,1.4,4,3.4c0,0.3,0,0.5,0,0.8v7.4h-2.2v-6.8
					c0-1.8-0.8-2.7-2.5-2.7c-1.4-0.1-2.7,1-2.7,2.5c0,0.1,0,0.3,0,0.4v6.6h-2.2L135.8,25.8z"/>
				<path d="M149,21.3h2.2v15.8H149V21.3z"/>
				<path d="M154.3,31.5c-0.3-3,1.9-5.6,4.8-5.9c3-0.3,5.6,1.9,5.9,4.8c0,0.3,0,0.7,0,1c0.3,3-1.9,5.6-4.8,5.9s-5.6-1.9-5.9-4.8
					C154.3,32.2,154.3,31.8,154.3,31.5z M162.7,31.5c0-2.5-1.1-3.9-3-3.9c-1.9,0-3,1.4-3,3.9c0,2.5,1.1,3.9,3,3.9
					C161.6,35.4,162.7,33.9,162.7,31.5z"/>
				<path d="M167.4,33.9c0-2,1.5-3.2,4.2-3.4l3.1-0.2v-1c0-1.2-0.8-1.9-2.3-1.9c-1.3,0-2.1,0.5-2.4,1.3h-2.2c0.2-2,2.1-3.2,4.6-3.2
					c2.8,0,4.5,1.4,4.5,3.8v7.8h-2.2v-1.6h-0.2c-0.7,1.2-2,1.8-3.4,1.8c-1.9,0.2-3.6-1.2-3.8-3.1C167.4,34.2,167.4,34,167.4,33.9z
					 M174.7,33V32l-2.8,0.2c-1.6,0.1-2.3,0.6-2.3,1.6c0,1,0.9,1.6,2.1,1.6C173.3,35.6,174.6,34.5,174.7,33
					C174.7,33,174.7,33,174.7,33z"/>
				<path d="M179.9,31.5c0-3.6,1.8-5.9,4.7-5.9c1.4-0.1,2.8,0.7,3.5,2h0.2v-6.2h2.2v15.8h-2.1v-1.8h-0.2c-0.7,1.3-2.1,2-3.6,2
					C181.7,37.3,179.9,35.1,179.9,31.5z M182.2,31.5c0,2.4,1.1,3.9,3,3.9c1.9,0,3.1-1.5,3.1-3.9c0-2.4-1.2-3.9-3.1-3.9
					C183.4,27.6,182.2,29.1,182.2,31.5L182.2,31.5z"/>
				<path d="M199.8,31.5c-0.3-3,1.9-5.6,4.8-5.9c3-0.3,5.6,1.9,5.9,4.8c0,0.3,0,0.7,0,1c0.3,3-1.9,5.6-4.8,5.9
					c-3,0.3-5.6-1.9-5.9-4.8C199.8,32.2,199.8,31.8,199.8,31.5z M208.2,31.5c0-2.5-1.1-3.9-3-3.9c-1.9,0-3,1.4-3,3.9
					c0,2.5,1.1,3.9,3,3.9C207.1,35.4,208.2,33.9,208.2,31.5z"/>
				<path d="M213.5,25.8h2.2v1.8h0.2c0.6-1.3,1.9-2.1,3.4-2c2-0.2,3.8,1.4,4,3.4c0,0.3,0,0.5,0,0.8v7.4h-2.2v-6.8
					c0-1.8-0.8-2.7-2.5-2.7c-1.4-0.1-2.7,1-2.7,2.5c0,0.1,0,0.3,0,0.4v6.6h-2.2V25.8z"/>
				<path d="M235.8,23v2.9h2.5v1.9h-2.5v5.8c0,1.2,0.5,1.7,1.6,1.7c0.3,0,0.6,0,0.9-0.1v1.9c-0.4,0.1-0.8,0.1-1.2,0.1
					c-2.5,0-3.5-0.9-3.5-3.1v-6.4h-1.8v-1.9h1.8V23H235.8z"/>
				<path d="M241.4,21.3h2.2v6.3h0.2c0.6-1.3,2-2.2,3.5-2c2.1-0.1,3.8,1.5,3.9,3.5c0,0.2,0,0.5,0,0.7v7.3h-2.2v-6.8
					c0-1.8-0.8-2.7-2.4-2.7c-1.5-0.1-2.7,1-2.9,2.4c0,0.2,0,0.3,0,0.5v6.6h-2.2L241.4,21.3z"/>
				<path d="M264.2,34.1c-0.6,2.1-2.7,3.5-4.9,3.3c-2.8,0.1-5.2-2.2-5.3-5c0-0.3,0-0.6,0-0.8c-0.4-2.9,1.6-5.5,4.5-5.9
					c0.2,0,0.5,0,0.7,0c3.2,0,5.1,2.2,5.1,5.7v0.8h-8v0.1c-0.1,1.7,1.1,3.1,2.7,3.2c0.1,0,0.2,0,0.3,0c1.1,0.1,2.2-0.4,2.7-1.4
					L264.2,34.1z M256.3,30.4h5.7c0.1-1.5-1-2.8-2.5-2.9c-0.1,0-0.2,0-0.3,0C257.7,27.4,256.3,28.7,256.3,30.4
					C256.3,30.4,256.3,30.4,256.3,30.4L256.3,30.4z"/>
			</g>
		</g>
	</g>
</g>
</svg>
