<svg width="1440" height="69" viewBox="0 0 1440 69" fill="none" xmlns="http://www.w3.org/2000/svg">
<g clip-path="url(#clip0)">
<path d="M-14.5853 34.8332C-14.5853 17.2045 -0.527211 6.17908 21.7213 6.17908C43.9699 6.17908 58.028 17.2045 58.028 34.8332C58.028 52.4618 43.9699 63.4872 21.7213 63.4872C-0.527211 63.4872 -14.5853 52.4618 -14.5853 34.8332ZM42.7474 34.8332C42.7474 24.8981 34.8015 17.9315 21.7213 17.9315C8.76339 17.9315 0.695259 24.8981 0.695259 34.8332C0.695259 44.7682 8.76339 51.7348 21.7213 51.7348C34.8015 51.7954 42.7474 44.8288 42.7474 34.8332Z" fill="black"/>
<path d="M62.9178 34.8332C62.9178 17.2045 76.976 6.17908 99.2245 6.17908C121.473 6.17908 135.531 17.2045 135.531 34.8332C135.531 52.4618 121.473 63.4872 99.2245 63.4872C76.976 63.5478 62.9178 52.4618 62.9178 34.8332ZM120.189 34.8332C120.189 24.8981 112.244 17.9315 99.1634 17.9315C86.2054 17.9315 78.1373 24.8981 78.1373 34.8332C78.1373 44.7682 86.2054 51.7348 99.1634 51.7348C112.182 51.7954 120.189 44.8288 120.189 34.8332Z" fill="black"/>
<path d="M203.01 19.143H178.011V62.7602H162.853V19.143H137.854V6.96655H203.01V19.143Z" fill="black"/>
<path d="M320.06 6.96655L301.112 62.6997H282.714L270.245 21.3845H269.939L257.531 62.6997H239.134L220.063 6.96655H235.405L248.302 47.9788H248.608L260.954 6.96655H279.352L291.699 47.9788H292.004L304.779 6.96655H320.06Z" stroke="black" stroke-width="1.528" stroke-miterlimit="10"/>
<path d="M339.191 18.6585V28.8358H375.986V40.4671H339.191V51.1291H380.571V62.7603H324.827V7.02722H380.571V18.6585H339.191Z" stroke="black" stroke-width="1.528" stroke-miterlimit="10"/>
<path d="M418.405 18.6585V28.8358H455.201V40.4671H418.405V51.1291H459.785V62.7603H404.042V7.02722H459.785V18.6585H418.405Z" stroke="black" stroke-width="1.528" stroke-miterlimit="10"/>
<path d="M536.372 34.9543C536.372 51.4925 526.959 62.7602 503.977 62.7602H468.77V6.96655H503.977C525.064 6.96655 536.372 17.0833 536.372 34.9543ZM520.785 34.8331C520.785 26.4731 516.201 18.8401 504.832 18.8401H484.295V50.8867H504.832C515.651 50.8867 520.785 43.3748 520.785 34.8331Z" stroke="black" stroke-width="1.528" stroke-miterlimit="10"/>
<path d="M544.44 62.7602V6.96655H559.598V62.6997L544.44 62.7602Z" stroke="black" stroke-width="1.528" stroke-miterlimit="10"/>
<path d="M630.133 19.143H605.134V62.7602H589.976V19.143H564.977V6.96655H630.133V19.143Z" stroke="black" stroke-width="1.528" stroke-miterlimit="10"/>
</g>
<g clip-path="url(#clip1)">
<path d="M694.954 38.2861V62.6996H679.749V38.2861L651.172 6.96655H670.04L687.138 26.352H687.443L704.663 7.02713H723.531L694.954 38.2861Z" fill="black"/>
<path d="M719.379 34.8332C719.379 17.2045 733.423 6.17908 755.65 6.17908C777.877 6.17908 791.921 17.2045 791.921 34.8332C791.921 52.4618 777.877 63.4872 755.65 63.4872C733.423 63.4872 719.379 52.4618 719.379 34.8332ZM776.594 34.8332C776.594 24.8981 768.656 17.9315 755.589 17.9315C742.644 17.9315 734.583 24.8981 734.583 34.8332C734.583 44.7682 742.644 51.7348 755.589 51.7348C768.656 51.7954 776.594 44.8288 776.594 34.8332Z" fill="black"/>
<path d="M814.331 6.96655V34.5302C814.331 44.4047 818.484 51.4925 831.795 51.4925C844.252 51.4925 849.259 44.4652 849.259 34.5302V6.96655H864.525V35.3783C864.525 55.2484 851.274 63.4872 831.856 63.4872C811.706 63.4872 799.188 55.2484 799.188 35.3783V6.96655H814.331Z" fill="black"/>
<path d="M914.413 17.9315C906.231 17.9315 900.125 19.4459 900.125 23.0201C900.125 26.4732 903.483 27.8665 917.711 28.7146C939.388 30.1079 947.448 35.9841 947.448 46.7067C947.448 60.5794 930.9 63.5478 915.635 63.5478C898.842 63.5478 883.821 58.0351 882.417 43.7989H897.865C899.209 50.1597 908.307 51.6742 916.49 51.6742C924.916 51.6742 931.816 50.5232 931.816 46.5855C931.816 43.0114 929.13 41.5574 915.024 40.6488C895.85 39.3766 884.432 35.0149 884.432 23.9894C884.432 9.99555 899.758 6.23962 914.413 6.23962C930.29 6.23962 945.8 10.8437 947.326 25.5645H932.061C930.656 19.7488 923.329 17.9315 914.413 17.9315Z" fill="black"/>
<path d="M1023.29 6.96655V62.6996H1008.33V40.4064H971.08V62.6996H955.997V6.96655H971.08V28.0482H1008.33V6.96655H1023.29Z" fill="black"/>
<path d="M1031.04 34.8332C1031.04 17.2045 1045.09 6.17908 1067.31 6.17908C1089.54 6.17908 1103.59 17.2045 1103.59 34.8332C1103.59 52.4618 1089.54 63.4872 1067.31 63.4872C1045.09 63.4872 1031.04 52.4618 1031.04 34.8332ZM1088.32 34.8332C1088.32 24.8981 1080.38 17.9315 1067.31 17.9315C1054.37 17.9315 1046.31 24.8981 1046.31 34.8332C1046.31 44.7682 1054.37 51.7348 1067.31 51.7348C1080.38 51.7954 1088.32 44.8288 1088.32 34.8332Z" fill="black"/>
<path d="M1108.47 34.8332C1108.47 17.2045 1122.52 6.17908 1144.74 6.17908C1166.97 6.17908 1181.01 17.2045 1181.01 34.8332C1181.01 52.4618 1166.97 63.4872 1144.74 63.4872C1122.52 63.5478 1108.47 52.4618 1108.47 34.8332ZM1165.69 34.8332C1165.69 24.8981 1157.75 17.9315 1144.68 17.9315C1131.74 17.9315 1123.68 24.8981 1123.68 34.8332C1123.68 44.7682 1131.74 51.7348 1144.68 51.7348C1157.69 51.7954 1165.69 44.8288 1165.69 34.8332Z" fill="black"/>
<path d="M1248.43 19.143H1223.45V62.7602H1208.31V19.143H1183.33V6.96655H1248.43V19.143Z" fill="black"/>
<path d="M1365.36 6.96655L1346.43 62.6997H1328.05L1315.6 21.3845H1315.29L1302.89 62.6997H1284.52L1265.46 6.96655H1280.79L1293.67 47.9788H1293.98L1306.31 6.96655H1324.69L1337.03 47.9788H1337.33L1350.1 6.96655H1365.36Z" stroke="black" stroke-width="1.528" stroke-miterlimit="10"/>
<path d="M1384.47 18.6585V28.8358H1421.23V40.4671H1384.47V51.1291H1425.81V62.7603H1370.12V7.02722H1425.81V18.6585H1384.47Z" stroke="black" stroke-width="1.528" stroke-miterlimit="10"/>
</g>
<defs>
<clipPath id="clip0">
<rect width="1026" height="69" fill="white" transform="translate(-395.5)"/>
</clipPath>
<clipPath id="clip1">
<rect width="1025" height="69" fill="white" transform="translate(650.5)"/>
</clipPath>
</defs>
</svg>
